<?xml version="1.0" ?><svg id="icons" viewBox="0 0 158.52 155.03" xmlns="http://www.w3.org/2000/svg"><defs><style>.cls-1{fill:#fee000;}.cls-2{fill:#a9c2cc;}.cls-3{fill:#999;}.cls-4{fill:#fff399;}.cls-5{fill:#fff;}</style></defs><title/><path class="cls-1" d="M145.53,82.76c.06-20.56,1.95-42.82,1.72-51-.29-10.38-9.18-20.23-19.31-21.08-6-.5-12.89-.58-20.66-.73-4.47-.09-47.61-1.24-52.34-1.41,0,0-8.95-1.29-25.69,1.91-9.94,1.9-16.08,9.88-17,21.49-.52,6.41-1.14,32-1.33,42.14-.31,15.92-1,33.45-1,47.36,0,14.8,8.07,24,23,24.25,8.91.16,67.43.61,91.68.62,14.09,0,21.92-7,22.19-21.31C146.82,119.54,145.48,101.39,145.53,82.76Z"/><path class="cls-2" d="M101.55,118.08v-10H63.42v10a25.09,25.09,0,0,0,.56,5.2h37A25.79,25.79,0,0,0,101.55,118.08Z"/><path class="cls-3" d="M64,123.28a29,29,0,0,0,4.16,11.16H93.83A29,29,0,0,0,98,123.28Z"/><path class="cls-4" d="M79.23,15.42C58.26,17,44.42,38.05,43.09,59c-.66,10.25-.64,19.8,4.85,27.46l9.11,13a18.55,18.55,0,0,1,3.37,10.65h44.13c0-3.81,4.17-7.53,6.36-10.65l9.12-13c5-7,9.94-15.5,9.94-24.71C130,37.28,104.12,13.55,79.23,15.42Z"/><path class="cls-5" d="M68.26,34.12a39.41,39.41,0,0,0-13,10C51.45,48.68,49,56.1,48.34,62c-1.4,13.61,6.39,27,19.24,31.92,12.66,4.81,27.4,1.73,36.3-8.65,8.67-10.14,10.48-26.38,3.49-37.91a30,30,0,0,0-16-12.42C84,32.34,75.66,31,68.26,34.12Z"/><path class="cls-1" d="M79.48,79.63a7,7,0,0,0-7,7v15.6H86.53V86.67A7,7,0,0,0,79.48,79.63Z"/><path d="M116.35,37.44c-9-12.07-23.76-19.68-38.94-18.39a48,48,0,0,0-38.7,26.4,43.32,43.32,0,0,0-3.09,29.43c1.92,7.33,6.32,13,10.65,19,2.87,4,6.87,8.3,8.39,13,1,3,.81,6.07.78,9.17-.06,5,.49,9.64,2.65,14.17,1.42,3,2.93,6.29,6.43,6.44,2.89.12,5.79.1,8.68.15,7.45.12,14.57.21,21.35.21a7.59,7.59,0,0,0,3.19-1.13c2.61-2.14,4.54-6.35,5.67-9.44,1.84-5,1.49-10,1.64-15.17.23-8.32,6.52-14.91,11-21.38a46,46,0,0,0,8.5-24.61A44.72,44.72,0,0,0,116.35,37.44ZM74.8,104.69a103.29,103.29,0,0,1-.2-10.85c0-1.59-.26-3.51.25-5a5.18,5.18,0,0,1,7.86-2.51c2.24,1.65,1.62,4.79,1.69,7.24.08,3.09.16,6.19.25,9.28,0,.41.32,2.68.07,3-.65.71-4.89.16-5.77.14l-2.59,0C74.93,105.84,74.87,106.06,74.8,104.69ZM87.55,83.76c-.14.34-.29.68-.43,1-3.65-4.92-11.4-4.68-15,.16-1.6-4.28-3.57-8.44-5.42-12.62L66,70.78c-.36-.82-.72-1.63-1.07-2.46-.58-1.37-.95-1.47-.13-2.43s3.14-2.08,4.33-2.77A24.1,24.1,0,0,1,73.65,61c6.88-2.33,13.61-.52,19.38,3.58.5.36,2,1.13,2.12,1.66s-.66,1.75-.82,2.17c-.62,1.6-1.25,3.21-1.94,4.79C90.83,76.78,89,80.15,87.55,83.76ZM80,112.07c5,.14,10.1-.41,15.14-.54l2.18,0c1-.39,1.41,2.78,1.49,3.51a32,32,0,0,1,.22,3.39c0,1.62.31,1.61-1.17,1.87a29.76,29.76,0,0,1-4.33.11c-2.45,0-4.9.07-7.36,0L80,120.25c-3.6-.08-7.21-.2-10.82-.23-2.18,0-8.55.21-8.55.21,0-.24,0-1.48,0-1.72,0-.61,0-1.22,0-1.83,0-1.73,0-3.46,0-5.19C67.07,111.68,73.52,112,80,112.07ZM64.91,131.36a22.61,22.61,0,0,1-2.67-4.81c11.79.13,23.32-1.27,35.1-.22-.82,1.83-1.91,4.77-3.89,5.2a14.27,14.27,0,0,1-2.92,0l-7.81,0Zm51.91-55.12a71.07,71.07,0,0,1-11.15,19.54c-1.13,1.38-2.3,2.72-3.44,4.09a35.8,35.8,0,0,0-3,5.18c-.7,0-1.41,0-2.11,0q-1.32,0-2.64,0c-2,0-4,.12-6.07.33.19-4.63.54-9.27.54-13.9s3.35-9.2,5.53-13.19a81.05,81.05,0,0,0,3.49-7.43c.84-2,2.61-4.61,1.3-6.68-2.52-4-9.24-6.37-13.57-7.34A28,28,0,0,0,69,58a17.8,17.8,0,0,0-6.37,4.1c-1.93,2.08-3,2.92-1.85,5.71,1.31,3.06,2.39,6.23,3.55,9.35a117.1,117.1,0,0,0,5.11,12.43c1.3,2.56.68,5.34.91,8.21a63.72,63.72,0,0,1,.19,7.82L67,105.48l-3.79-.2c-.75,0-3.23.28-3.79-.16s-.78-2-1-2.52A22.14,22.14,0,0,0,57,100.14c-.67-1-1.41-2-2.11-3-1.81-2.53-3.63-5.06-5.43-7.6-3.2-4.5-6.08-9-7.77-14.33a40.77,40.77,0,0,1,0-24.68c3.83-12,13.9-22.16,26.19-25.33a43,43,0,0,1,32.85,5.33C116.3,40.12,123.24,59,116.82,76.24Z"/><path d="M156.58,94.49c.13-19.72-1.37-39.37-1-59.09.15-9-.25-17.62-6.27-24.95C141,.36,128.63.54,116.72.64,98.38.81,80.14,2.35,61.79,2.15,50.68,2,39.26,1.19,28.16,2c-11.94.9-23.52,10.85-24.85,23-.6,5.56-.24,11.32-.24,16.89,0,7,0,14,0,21q-.16,19.51-.67,39c-.19,7.68-.57,15.3-.4,23,.1,4,.06,8,1.2,11.94a23.93,23.93,0,0,0,11.48,14.57c4.29,2.3,8.88,2.75,13.65,2.85,6,.13,12,.15,18,0q8.37-.24,16.74-.52c14.3-.46,28.58.61,42.88.57,7.15,0,14.31.15,21.46-.11,5-.18,9.73-.91,14.12-3.61a34,34,0,0,0,12.88-14.32c2.84-6.28,2.17-13.7,2.22-20.44C156.62,108.73,156.53,101.61,156.58,94.49Zm-5.55,0c-.13,6.61-.2,13.23-.34,19.85-.12,6,.49,12.89-1.42,18.64a30.1,30.1,0,0,1-9.56,13.37c-3.63,2.92-8.07,3.4-12.55,3.56-9.21.32-18.45-.2-27.66-.17-6.4,0-12.79.47-19.18.49-5.42,0-10.86-.19-16.28-.25s-10.52-.81-15.85-.67c-6.37.16-12.71.57-19.09.37-5.89-.18-11.24-.86-15.69-5.11A20,20,0,0,1,7.63,131c-.2-5.14,0-10.34,0-15.49Q7.79,75,8.32,34.34c.06-4.57-.23-9.29,1.65-13.58A24.18,24.18,0,0,1,20.17,9.59c6.73-3.75,15-2.93,22.47-3.09Q61.81,6.08,81,6c6.43,0,12.81.41,19.25.22,6.22-.18,12.43-.47,18.65-.6s12.73-.56,18.5,1.87a21.51,21.51,0,0,1,11,10.69c3.49,7.4,2.17,16,2,24-.25,11.26.3,22.45.71,33.69C151.29,82.09,151.16,88.26,151,94.47Z"/></svg>